#N canvas 429 66 840 734 10;
#X obj 69 67 r run;
#X obj 118 67 r walk;
#X obj 170 67 r stationary;
#X obj 259 68 r automotive;
#X obj 381 67 r magnitude_average;
#N canvas 59 23 1139 668 guts---------- 0;
#X obj 45 21 inlet;
#X obj 92 21 inlet;
#X obj 146 23 inlet;
#X obj 203 24 inlet;
#X obj 400 54 inlet;
#X obj 157 408 cos~;
#X floatatom 204 198 4 0 100 0 - - -;
#X obj 204 222 / 10;
#X text 461 275 --- 0.02 seconds ---;
#X obj 157 378 *~;
#X obj 204 294 line~;
#X obj 204 246 max 0;
#N canvas 0 22 450 300 (subpatch) 0;
#X array F08-carrier 882 float 0;
#X coords 0 2 881 -2 200 140 1;
#X restore 486 123 graph;
#X floatatom 57 295 4 0 0 0 - - -;
#X text 53 270 frequency;
#X obj 199 408 cos~;
#X obj 240 321 wrap~;
#X obj 204 348 -~;
#X obj 199 378 +~;
#X obj 204 445 -~;
#X obj 219 475 *~;
#X obj 197 500 +~;
#X obj 204 270 pack 0 50;
#X text 254 408 synthesize the two partials;
#X text 447 590 updated for Pd version 0.37;
#X obj 198 526 hip~;
#X text 472 22 The other \, spiffier way is to make a sum of cosines
to interpolate between adjacent harmonics. Suppose for example we want
a center frequency of 5.3 (in units of the fundamental.) We just take
partial 5 with amplitude 0.7 and partial 6 with amplitude 0.3:;
#X obj 286 552 tabwrite~ F08-carrier;
#X text 316 528 <-graph;
#X obj 284 527 bng 18 250 50 0 empty empty empty 0 -6 0 8 -262144 -1
-1;
#X obj 57 319 phasor~ 100;
#X text 83 149 center frequency (in;
#X text 82 169 tenths of fundamental);
#X text 480 9 MOVABLE CENTER FREQUENCY BY ADDING TWO COSINES;
#X text 295 320 the fractional part "q";
#X text 253 347 subtract to get the integer part "k";
#X text 249 380 multiply phase by k and k+1;
#X text 252 444 c2 - c1;
#X text 267 473 q * (c2 - c1);
#X text 236 500 q * c2 + (1-q) * c1;
#X obj 198 603 dac~;
#X obj 197 562 *~ 0.5;
#X msg 34 212 110;
#X obj 301 135 metro 1000;
#X obj 301 158 random 100;
#X obj 319 58 loadbang;
#X msg 330 87 1;
#X obj 529 453 line~;
#X msg 569 367 0 1000;
#X obj 500 366 1 1000;
#X msg 76 211 165;
#X msg 112 221 154;
#X msg 151 233 220;
#X obj 325 246 +;
#X floatatom 440 55 5 0 0 0 - - -;
#X obj 410 127 * 10;
#X obj 403 92 + 1;
#X msg 51 52 2000;
#X msg 105 52 1000;
#X msg 156 51 500;
#X msg 214 56 750;
#X connect 0 0 42 0;
#X connect 0 0 57 0;
#X connect 1 0 50 0;
#X connect 1 0 58 0;
#X connect 2 0 51 0;
#X connect 2 0 59 0;
#X connect 3 0 52 0;
#X connect 3 0 60 0;
#X connect 4 0 56 0;
#X connect 5 0 19 1;
#X connect 5 0 21 0;
#X connect 6 0 7 0;
#X connect 7 0 11 0;
#X connect 9 0 5 0;
#X connect 9 0 18 0;
#X connect 10 0 17 0;
#X connect 10 0 16 0;
#X connect 11 0 22 0;
#X connect 13 0 30 0;
#X connect 15 0 19 0;
#X connect 16 0 17 1;
#X connect 16 0 20 1;
#X connect 17 0 9 1;
#X connect 18 0 15 0;
#X connect 19 0 20 0;
#X connect 20 0 21 1;
#X connect 21 0 25 0;
#X connect 21 0 27 0;
#X connect 22 0 10 0;
#X connect 25 0 41 0;
#X connect 29 0 27 0;
#X connect 30 0 9 0;
#X connect 30 0 18 1;
#X connect 41 0 40 0;
#X connect 41 0 40 1;
#X connect 42 0 13 0;
#X connect 43 0 44 0;
#X connect 44 0 53 0;
#X connect 45 0 46 0;
#X connect 46 0 43 0;
#X connect 48 0 47 0;
#X connect 49 0 47 0;
#X connect 50 0 13 0;
#X connect 51 0 13 0;
#X connect 52 0 13 0;
#X connect 53 0 6 0;
#X connect 54 0 56 0;
#X connect 55 0 44 1;
#X connect 55 0 53 1;
#X connect 56 0 55 0;
#X connect 57 0 43 1;
#X connect 58 0 43 1;
#X connect 59 0 43 1;
#X connect 60 0 43 1;
#X restore 269 172 pd guts----------;
#X connect 0 0 5 0;
#X connect 1 0 5 1;
#X connect 2 0 5 2;
#X connect 3 0 5 3;
#X connect 4 0 5 4;
